<svg width="320" height="320">
  <rect x="0" y="299" width="22" height="22" style="fill:rgb(243,243,243)" fill-opacity="1.000000" />
  <rect x="0" y="279" width="22" height="22" style="fill:rgb(243,243,243)" fill-opacity="1.000000" />
  <rect x="0" y="259" width="22" height="22" style="fill:rgb(243,243,243)" fill-opacity="1.000000" />
  <rect x="19" y="299" width="22" height="22" style="fill:rgb(243,243,243)" fill-opacity="1.000000" />
  <rect x="39" y="299" width="22" height="22" style="fill:rgb(243,243,243)" fill-opacity="1.000000" />
  <rect x="19" y="239" width="22" height="22" style="fill:rgb(243,243,243)" fill-opacity="1.000000" />
  <rect x="39" y="219" width="22" height="22" style="fill:rgb(243,243,243)" fill-opacity="1.000000" />
  <rect x="59" y="199" width="22" height="22" style="fill:rgb(243,243,243)" fill-opacity="1.000000" />
  <rect x="79" y="179" width="22" height="22" style="fill:rgb(243,243,243)" fill-opacity="1.000000" />
  <rect x="99" y="159" width="22" height="22" style="fill:rgb(243,243,243)" fill-opacity="1.000000" />
  <rect x="119" y="139" width="22" height="22" style="fill:rgb(243,243,243)" fill-opacity="1.000000" />
  <rect x="139" y="119" width="22" height="22" style="fill:rgb(243,243,243)" fill-opacity="1.000000" />
  <rect x="159" y="99" width="22" height="22" style="fill:rgb(243,243,243)" fill-opacity="1.000000" />
  <rect x="179" y="79" width="22" height="22" style="fill:rgb(243,243,243)" fill-opacity="1.000000" />
  <rect x="59" y="279" width="22" height="22" style="fill:rgb(243,243,243)" fill-opacity="1.000000" />
  <rect x="79" y="259" width="22" height="22" style="fill:rgb(243,243,243)" fill-opacity="1.000000" />
  <rect x="99" y="239" width="22" height="22" style="fill:rgb(243,243,243)" fill-opacity="1.000000" />
  <rect x="119" y="219" width="22" height="22" style="fill:rgb(243,243,243)" fill-opacity="1.000000" />
  <rect x="139" y="199" width="22" height="22" style="fill:rgb(243,243,243)" fill-opacity="1.000000" />
  <rect x="159" y="179" width="22" height="22" style="fill:rgb(243,243,243)" fill-opacity="1.000000" />
  <rect x="179" y="159" width="22" height="22" style="fill:rgb(243,243,243)" fill-opacity="1.000000" />
  <rect x="199" y="139" width="22" height="22" style="fill:rgb(243,243,243)" fill-opacity="1.000000" />
  <rect x="219" y="119" width="22" height="22" style="fill:rgb(243,243,243)" fill-opacity="1.000000" />
  <rect x="159" y="59" width="22" height="22" style="fill:rgb(243,243,243)" fill-opacity="1.000000" />
  <rect x="199" y="99" width="22" height="22" style="fill:rgb(243,243,243)" fill-opacity="1.000000" />
  <rect x="239" y="139" width="22" height="22" style="fill:rgb(243,243,243)" fill-opacity="1.000000" />
  <rect x="19" y="259" width="22" height="22" style="fill:rgb(243,243,243)" fill-opacity="1.000000" />
  <rect x="39" y="259" width="22" height="22" style="fill:rgb(243,243,243)" fill-opacity="1.000000" />
  <rect x="59" y="259" width="22" height="22" style="fill:rgb(243,243,243)" fill-opacity="1.000000" />
  <rect x="19" y="279" width="22" height="22" style="fill:rgb(243,243,243)" fill-opacity="1.000000" />
  <rect x="39" y="279" width="22" height="22" style="fill:rgb(243,243,243)" fill-opacity="1.000000" />
  <rect x="139" y="39" width="22" height="22" style="fill:rgb(243,243,243)" fill-opacity="1.000000" />
  <rect x="259" y="159" width="22" height="22" style="fill:rgb(243,243,243)" fill-opacity="1.000000" />
  <rect x="159" y="19" width="22" height="22" style="fill:rgb(243,243,243)" fill-opacity="1.000000" />
  <rect x="179" y="19" width="22" height="22" style="fill:rgb(243,243,243)" fill-opacity="1.000000" />
  <rect x="199" y="39" width="22" height="22" style="fill:rgb(243,243,243)" fill-opacity="1.000000" />
  <rect x="219" y="59" width="22" height="22" style="fill:rgb(243,243,243)" fill-opacity="1.000000" />
  <rect x="239" y="79" width="22" height="22" style="fill:rgb(243,243,243)" fill-opacity="1.000000" />
  <rect x="259" y="99" width="22" height="22" style="fill:rgb(243,243,243)" fill-opacity="1.000000" />
  <rect x="279" y="139" width="22" height="22" style="fill:rgb(243,243,243)" fill-opacity="1.000000" />
  <rect x="279" y="119" width="22" height="22" style="fill:rgb(243,243,243)" fill-opacity="1.000000" />
  <rect x="219" y="39" width="22" height="22" style="fill:rgb(243,243,243)" fill-opacity="1.000000" />
  <rect x="239" y="19" width="22" height="22" style="fill:rgb(243,243,243)" fill-opacity="1.000000" />
  <rect x="259" y="79" width="22" height="22" style="fill:rgb(243,243,243)" fill-opacity="1.000000" />
  <rect x="279" y="59" width="22" height="22" style="fill:rgb(243,243,243)" fill-opacity="1.000000" />
  <rect x="259" y="39" width="22" height="22" style="fill:rgb(243,243,243)" fill-opacity="1.000000" />
  <rect x="239" y="39" width="22" height="22" style="fill:rgb(243,243,243)" fill-opacity="1.000000" />
  <rect x="239" y="59" width="22" height="22" style="fill:rgb(243,243,243)" fill-opacity="1.000000" />
  <rect x="259" y="59" width="22" height="22" style="fill:rgb(243,243,243)" fill-opacity="1.000000" />
  <rect x="259" y="139" width="22" height="22" style="fill:rgb(243,243,243)" fill-opacity="1.000000" />
  <rect x="239" y="119" width="22" height="22" style="fill:rgb(243,243,243)" fill-opacity="1.000000" />
  <rect x="219" y="99" width="22" height="22" style="fill:rgb(243,243,243)" fill-opacity="1.000000" />
  <rect x="199" y="79" width="22" height="22" style="fill:rgb(243,243,243)" fill-opacity="1.000000" />
  <rect x="179" y="59" width="22" height="22" style="fill:rgb(243,243,243)" fill-opacity="1.000000" />
  <rect x="159" y="39" width="22" height="22" style="fill:rgb(243,243,243)" fill-opacity="1.000000" />
  <rect x="219" y="19" width="22" height="22" style="fill:rgb(243,243,243)" fill-opacity="1.000000" />
  <rect x="239" y="0" width="22" height="22" style="fill:rgb(243,243,243)" fill-opacity="1.000000" />
  <rect x="259" y="0" width="22" height="22" style="fill:rgb(243,243,243)" fill-opacity="1.000000" />
  <rect x="259" y="19" width="22" height="22" style="fill:rgb(243,243,243)" fill-opacity="1.000000" />
  <rect x="279" y="19" width="22" height="22" style="fill:rgb(243,243,243)" fill-opacity="1.000000" />
  <rect x="279" y="39" width="22" height="22" style="fill:rgb(243,243,243)" fill-opacity="1.000000" />
  <rect x="299" y="59" width="22" height="22" style="fill:rgb(243,243,243)" fill-opacity="1.000000" />
  <rect x="299" y="39" width="22" height="22" style="fill:rgb(243,243,243)" fill-opacity="1.000000" />
  <rect x="279" y="79" width="22" height="22" style="fill:rgb(243,243,243)" fill-opacity="1.000000" />
  <rect x="259" y="119" width="22" height="22" style="fill:rgb(243,243,243)" fill-opacity="1.000000" />
  <rect x="239" y="99" width="22" height="22" style="fill:rgb(243,243,243)" fill-opacity="1.000000" />
  <rect x="219" y="79" width="22" height="22" style="fill:rgb(243,243,243)" fill-opacity="1.000000" />
  <rect x="199" y="59" width="22" height="22" style="fill:rgb(243,243,243)" fill-opacity="1.000000" />
  <rect x="179" y="39" width="22" height="22" style="fill:rgb(243,243,243)" fill-opacity="1.000000" />
</svg>