<svg width="320" height="320">
  <rect x="39.95" y="259.95" width="20.1" height="20.1" style="fill:rgb(243,243,243)" fill-opacity="1.0" />
  <rect x="99.95" y="199.95" width="20.1" height="20.1" style="fill:rgb(243,243,243)" fill-opacity="1.0" />
  <rect x="119.95" y="179.95" width="20.1" height="20.1" style="fill:rgb(243,243,243)" fill-opacity="1.0" />
  <rect x="139.95" y="159.95" width="20.1" height="20.1" style="fill:rgb(243,243,243)" fill-opacity="1.0" />
  <rect x="159.95" y="139.95" width="20.1" height="20.1" style="fill:rgb(243,243,243)" fill-opacity="1.0" />
  <rect x="179.95" y="119.95" width="20.1" height="20.1" style="fill:rgb(243,243,243)" fill-opacity="1.0" />
  <rect x="199.95" y="99.95" width="20.1" height="20.1" style="fill:rgb(243,243,243)" fill-opacity="1.0" />
  <rect x="219.95" y="79.95" width="20.1" height="20.1" style="fill:rgb(243,243,243)" fill-opacity="1.0" />
  <rect x="239.95" y="59.95" width="20.1" height="20.1" style="fill:rgb(243,243,243)" fill-opacity="1.0" />
  <rect x="259.95" y="39.95" width="20.1" height="20.1" style="fill:rgb(243,243,243)" fill-opacity="1.0" />
  <rect x="19.95" y="239.95" width="20.1" height="20.1" style="fill:rgb(243,243,243)" fill-opacity="1.0" />
  <rect x="79.95" y="179.95" width="20.1" height="20.1" style="fill:rgb(243,243,243)" fill-opacity="1.0" />
  <rect x="99.95" y="159.95" width="20.1" height="20.1" style="fill:rgb(243,243,243)" fill-opacity="1.0" />
  <rect x="119.95" y="139.95" width="20.1" height="20.1" style="fill:rgb(243,243,243)" fill-opacity="1.0" />
  <rect x="139.95" y="119.95" width="20.1" height="20.1" style="fill:rgb(243,243,243)" fill-opacity="1.0" />
  <rect x="159.95" y="99.95" width="20.1" height="20.1" style="fill:rgb(243,243,243)" fill-opacity="1.0" />
  <rect x="179.95" y="79.95" width="20.1" height="20.1" style="fill:rgb(243,243,243)" fill-opacity="1.0" />
  <rect x="199.95" y="59.95" width="20.1" height="20.1" style="fill:rgb(243,243,243)" fill-opacity="1.0" />
  <rect x="219.95" y="39.95" width="20.1" height="20.1" style="fill:rgb(243,243,243)" fill-opacity="1.0" />
  <rect x="239.95" y="19.95" width="20.1" height="20.1" style="fill:rgb(243,243,243)" fill-opacity="1.0" />
  <rect x="59.95" y="279.95" width="20.1" height="20.1" style="fill:rgb(243,243,243)" fill-opacity="1.0" />
  <rect x="119.95" y="219.95" width="20.1" height="20.1" style="fill:rgb(243,243,243)" fill-opacity="1.0" />
  <rect x="139.95" y="199.95" width="20.1" height="20.1" style="fill:rgb(243,243,243)" fill-opacity="1.0" />
  <rect x="159.95" y="179.95" width="20.1" height="20.1" style="fill:rgb(243,243,243)" fill-opacity="1.0" />
  <rect x="179.95" y="159.95" width="20.1" height="20.1" style="fill:rgb(243,243,243)" fill-opacity="1.0" />
  <rect x="199.95" y="139.95" width="20.1" height="20.1" style="fill:rgb(243,243,243)" fill-opacity="1.0" />
  <rect x="219.95" y="119.95" width="20.1" height="20.1" style="fill:rgb(243,243,243)" fill-opacity="1.0" />
  <rect x="239.95" y="99.95" width="20.1" height="20.1" style="fill:rgb(243,243,243)" fill-opacity="1.0" />
  <rect x="259.95" y="79.95" width="20.1" height="20.1" style="fill:rgb(243,243,243)" fill-opacity="1.0" />
  <rect x="279.95" y="59.95" width="20.1" height="20.1" style="fill:rgb(243,243,243)" fill-opacity="1.0" />
  <rect x="39.95" y="179.95" width="20.1" height="20.1" style="fill:rgb(243,243,243)" fill-opacity="1.0" />
  <rect x="59.95" y="159.95" width="20.1" height="20.1" style="fill:rgb(243,243,243)" fill-opacity="1.0" />
  <rect x="79.95" y="139.95" width="20.1" height="20.1" style="fill:rgb(243,243,243)" fill-opacity="1.0" />
  <rect x="99.95" y="119.95" width="20.1" height="20.1" style="fill:rgb(243,243,243)" fill-opacity="1.0" />
  <rect x="119.95" y="99.95" width="20.1" height="20.1" style="fill:rgb(243,243,243)" fill-opacity="1.0" />
  <rect x="139.95" y="79.95" width="20.1" height="20.1" style="fill:rgb(243,243,243)" fill-opacity="1.0" />
  <rect x="159.95" y="59.95" width="20.1" height="20.1" style="fill:rgb(243,243,243)" fill-opacity="1.0" />
  <rect x="179.95" y="39.95" width="20.1" height="20.1" style="fill:rgb(243,243,243)" fill-opacity="1.0" />
  <rect x="119.95" y="259.95" width="20.1" height="20.1" style="fill:rgb(243,243,243)" fill-opacity="1.0" />
  <rect x="139.95" y="239.95" width="20.1" height="20.1" style="fill:rgb(243,243,243)" fill-opacity="1.0" />
  <rect x="159.95" y="219.95" width="20.1" height="20.1" style="fill:rgb(243,243,243)" fill-opacity="1.0" />
  <rect x="179.95" y="199.95" width="20.1" height="20.1" style="fill:rgb(243,243,243)" fill-opacity="1.0" />
  <rect x="199.95" y="179.95" width="20.1" height="20.1" style="fill:rgb(243,243,243)" fill-opacity="1.0" />
  <rect x="219.95" y="159.95" width="20.1" height="20.1" style="fill:rgb(243,243,243)" fill-opacity="1.0" />
  <rect x="239.95" y="139.95" width="20.1" height="20.1" style="fill:rgb(243,243,243)" fill-opacity="1.0" />
  <rect x="259.95" y="119.95" width="20.1" height="20.1" style="fill:rgb(243,243,243)" fill-opacity="1.0" />
  <rect x="139.95" y="139.95" width="20.1" height="20.1" style="fill:rgb(243,243,243)" fill-opacity="1.0" />
  <rect x="159.95" y="159.95" width="20.1" height="20.1" style="fill:rgb(243,243,243)" fill-opacity="1.0" />
  <rect x="119.95" y="119.95" width="20.1" height="20.1" style="fill:rgb(243,243,243)" fill-opacity="1.0" />
  <rect x="159.95" y="119.95" width="20.1" height="20.1" style="fill:rgb(243,243,243)" fill-opacity="1.0" />
  <rect x="119.95" y="159.95" width="20.1" height="20.1" style="fill:rgb(243,243,243)" fill-opacity="1.0" />
  <rect x="179.95" y="139.95" width="20.1" height="20.1" style="fill:rgb(243,243,243)" fill-opacity="1.0" />
  <rect x="139.95" y="179.95" width="20.1" height="20.1" style="fill:rgb(243,243,243)" fill-opacity="1.0" />
  <rect x="179.95" y="179.95" width="20.1" height="20.1" style="fill:rgb(243,243,243)" fill-opacity="1.0" />
  <rect x="199.95" y="79.95" width="20.1" height="20.1" style="fill:rgb(243,243,243)" fill-opacity="1.0" />
  <rect x="219.95" y="99.95" width="20.1" height="20.1" style="fill:rgb(243,243,243)" fill-opacity="1.0" />
  <rect x="179.95" y="59.95" width="20.1" height="20.1" style="fill:rgb(243,243,243)" fill-opacity="1.0" />
  <rect x="219.95" y="59.95" width="20.1" height="20.1" style="fill:rgb(243,243,243)" fill-opacity="1.0" />
  <rect x="179.95" y="99.95" width="20.1" height="20.1" style="fill:rgb(243,243,243)" fill-opacity="1.0" />
  <rect x="239.95" y="79.95" width="20.1" height="20.1" style="fill:rgb(243,243,243)" fill-opacity="1.0" />
  <rect x="199.95" y="119.95" width="20.1" height="20.1" style="fill:rgb(243,243,243)" fill-opacity="1.0" />
  <rect x="239.95" y="119.95" width="20.1" height="20.1" style="fill:rgb(243,243,243)" fill-opacity="1.0" />
  <rect x="159.95" y="79.95" width="20.1" height="20.1" style="fill:rgb(243,243,243)" fill-opacity="1.0" />
  <rect x="219.95" y="139.95" width="20.1" height="20.1" style="fill:rgb(243,243,243)" fill-opacity="1.0" />
  <rect x="139.95" y="99.95" width="20.1" height="20.1" style="fill:rgb(243,243,243)" fill-opacity="1.0" />
  <rect x="199.95" y="159.95" width="20.1" height="20.1" style="fill:rgb(243,243,243)" fill-opacity="1.0" />
  <rect x="99.95" y="139.95" width="20.1" height="20.1" style="fill:rgb(243,243,243)" fill-opacity="1.0" />
  <rect x="99.95" y="179.95" width="20.1" height="20.1" style="fill:rgb(243,243,243)" fill-opacity="1.0" />
  <rect x="119.95" y="199.95" width="20.1" height="20.1" style="fill:rgb(243,243,243)" fill-opacity="1.0" />
  <rect x="159.95" y="199.95" width="20.1" height="20.1" style="fill:rgb(243,243,243)" fill-opacity="1.0" />
  <rect x="139.95" y="219.95" width="20.1" height="20.1" style="fill:rgb(243,243,243)" fill-opacity="1.0" />
  <rect x="79.95" y="159.95" width="20.1" height="20.1" style="fill:rgb(243,243,243)" fill-opacity="1.0" />
  <rect x="39.95" y="199.95" width="20.1" height="20.1" style="fill:rgb(243,243,243)" fill-opacity="1.0" />
  <rect x="99.95" y="259.95" width="20.1" height="20.1" style="fill:rgb(243,243,243)" fill-opacity="1.0" />
  <rect x="79.95" y="279.95" width="20.1" height="20.1" style="fill:rgb(243,243,243)" fill-opacity="1.0" />
  <rect x="19.95" y="219.95" width="20.1" height="20.1" style="fill:rgb(243,243,243)" fill-opacity="1.0" />
  <rect x="199.95" y="39.95" width="20.1" height="20.1" style="fill:rgb(243,243,243)" fill-opacity="1.0" />
  <rect x="219.95" y="19.95" width="20.1" height="20.1" style="fill:rgb(243,243,243)" fill-opacity="1.0" />
  <rect x="239.95" y="39.95" width="20.1" height="20.1" style="fill:rgb(243,243,243)" fill-opacity="1.0" />
  <rect x="259.95" y="59.95" width="20.1" height="20.1" style="fill:rgb(243,243,243)" fill-opacity="1.0" />
  <rect x="259.95" y="99.95" width="20.1" height="20.1" style="fill:rgb(243,243,243)" fill-opacity="1.0" />
  <rect x="279.95" y="79.95" width="20.1" height="20.1" style="fill:rgb(243,243,243)" fill-opacity="1.0" />
</svg>