<svg width="320" height="320">
  <rect x="39.950000" y="59.950000" width="20.100000" height="20.100000" style="fill:rgb(243,243,243)" fill-opacity="1.000000" />
  <rect x="259.950000" y="59.950000" width="20.100000" height="20.100000" style="fill:rgb(243,243,243)" fill-opacity="1.000000" />
  <rect x="39.950000" y="79.950000" width="20.100000" height="20.100000" style="fill:rgb(243,243,243)" fill-opacity="1.000000" />
  <rect x="259.950000" y="79.950000" width="20.100000" height="20.100000" style="fill:rgb(243,243,243)" fill-opacity="1.000000" />
  <rect x="39.950000" y="99.950000" width="20.100000" height="20.100000" style="fill:rgb(243,243,243)" fill-opacity="1.000000" />
  <rect x="259.950000" y="99.950000" width="20.100000" height="20.100000" style="fill:rgb(243,243,243)" fill-opacity="1.000000" />
  <rect x="39.950000" y="119.950000" width="20.100000" height="20.100000" style="fill:rgb(243,243,243)" fill-opacity="1.000000" />
  <rect x="259.950000" y="119.950000" width="20.100000" height="20.100000" style="fill:rgb(243,243,243)" fill-opacity="1.000000" />
  <rect x="39.950000" y="139.950000" width="20.100000" height="20.100000" style="fill:rgb(243,243,243)" fill-opacity="1.000000" />
  <rect x="259.950000" y="139.950000" width="20.100000" height="20.100000" style="fill:rgb(243,243,243)" fill-opacity="1.000000" />
  <rect x="39.950000" y="159.950000" width="20.100000" height="20.100000" style="fill:rgb(243,243,243)" fill-opacity="1.000000" />
  <rect x="259.950000" y="159.950000" width="20.100000" height="20.100000" style="fill:rgb(243,243,243)" fill-opacity="1.000000" />
  <rect x="39.950000" y="179.950000" width="20.100000" height="20.100000" style="fill:rgb(243,243,243)" fill-opacity="1.000000" />
  <rect x="259.950000" y="179.950000" width="20.100000" height="20.100000" style="fill:rgb(243,243,243)" fill-opacity="1.000000" />
  <rect x="39.950000" y="199.950000" width="20.100000" height="20.100000" style="fill:rgb(243,243,243)" fill-opacity="1.000000" />
  <rect x="259.950000" y="199.950000" width="20.100000" height="20.100000" style="fill:rgb(243,243,243)" fill-opacity="1.000000" />
  <rect x="39.950000" y="219.950000" width="20.100000" height="20.100000" style="fill:rgb(243,243,243)" fill-opacity="1.000000" />
  <rect x="259.950000" y="219.950000" width="20.100000" height="20.100000" style="fill:rgb(243,243,243)" fill-opacity="1.000000" />
  <rect x="59.950000" y="59.950000" width="20.100000" height="20.100000" style="fill:rgb(243,243,243)" fill-opacity="1.000000" />
  <rect x="239.950000" y="59.950000" width="20.100000" height="20.100000" style="fill:rgb(243,243,243)" fill-opacity="1.000000" />
  <rect x="79.950000" y="59.950000" width="20.100000" height="20.100000" style="fill:rgb(243,243,243)" fill-opacity="1.000000" />
  <rect x="219.950000" y="59.950000" width="20.100000" height="20.100000" style="fill:rgb(243,243,243)" fill-opacity="1.000000" />
  <rect x="99.950000" y="59.950000" width="20.100000" height="20.100000" style="fill:rgb(243,243,243)" fill-opacity="1.000000" />
  <rect x="199.950000" y="59.950000" width="20.100000" height="20.100000" style="fill:rgb(243,243,243)" fill-opacity="1.000000" />
  <rect x="119.950000" y="59.950000" width="20.100000" height="20.100000" style="fill:rgb(243,243,243)" fill-opacity="1.000000" />
  <rect x="179.950000" y="59.950000" width="20.100000" height="20.100000" style="fill:rgb(243,243,243)" fill-opacity="1.000000" />
  <rect x="139.950000" y="59.950000" width="20.100000" height="20.100000" style="fill:rgb(243,243,243)" fill-opacity="1.000000" />
  <rect x="159.950000" y="59.950000" width="20.100000" height="20.100000" style="fill:rgb(243,243,243)" fill-opacity="1.000000" />
  <rect x="59.950000" y="219.950000" width="20.100000" height="20.100000" style="fill:rgb(243,243,243)" fill-opacity="1.000000" />
  <rect x="239.950000" y="219.950000" width="20.100000" height="20.100000" style="fill:rgb(243,243,243)" fill-opacity="1.000000" />
  <rect x="79.950000" y="219.950000" width="20.100000" height="20.100000" style="fill:rgb(243,243,243)" fill-opacity="1.000000" />
  <rect x="219.950000" y="219.950000" width="20.100000" height="20.100000" style="fill:rgb(243,243,243)" fill-opacity="1.000000" />
  <rect x="99.950000" y="219.950000" width="20.100000" height="20.100000" style="fill:rgb(243,243,243)" fill-opacity="1.000000" />
  <rect x="199.950000" y="219.950000" width="20.100000" height="20.100000" style="fill:rgb(243,243,243)" fill-opacity="1.000000" />
  <rect x="119.950000" y="219.950000" width="20.100000" height="20.100000" style="fill:rgb(243,243,243)" fill-opacity="1.000000" />
  <rect x="179.950000" y="219.950000" width="20.100000" height="20.100000" style="fill:rgb(243,243,243)" fill-opacity="1.000000" />
  <rect x="139.950000" y="219.950000" width="20.100000" height="20.100000" style="fill:rgb(243,243,243)" fill-opacity="1.000000" />
  <rect x="159.950000" y="219.950000" width="20.100000" height="20.100000" style="fill:rgb(243,243,243)" fill-opacity="1.000000" />
</svg>