<svg width="319" height="319">
  <rect x="139" y="0" width="22" height="22" style="fill:rgb(243,243,243)" fill-opacity="1.000000" />
  <rect x="159" y="0" width="22" height="22" style="fill:rgb(243,243,243)" fill-opacity="1.000000" />
  <rect x="139" y="19" width="22" height="22" style="fill:rgb(243,243,243)" fill-opacity="1.000000" />
  <rect x="159" y="19" width="22" height="22" style="fill:rgb(243,243,243)" fill-opacity="1.000000" />
  <rect x="139" y="39" width="22" height="22" style="fill:rgb(243,243,243)" fill-opacity="1.000000" />
  <rect x="159" y="39" width="22" height="22" style="fill:rgb(243,243,243)" fill-opacity="1.000000" />
  <rect x="139" y="59" width="22" height="22" style="fill:rgb(243,243,243)" fill-opacity="1.000000" />
  <rect x="159" y="59" width="22" height="22" style="fill:rgb(243,243,243)" fill-opacity="1.000000" />
  <rect x="139" y="79" width="22" height="22" style="fill:rgb(243,243,243)" fill-opacity="1.000000" />
  <rect x="159" y="79" width="22" height="22" style="fill:rgb(243,243,243)" fill-opacity="1.000000" />
  <rect x="139" y="99" width="22" height="22" style="fill:rgb(243,243,243)" fill-opacity="1.000000" />
  <rect x="159" y="99" width="22" height="22" style="fill:rgb(243,243,243)" fill-opacity="1.000000" />
  <rect x="139" y="119" width="22" height="22" style="fill:rgb(243,243,243)" fill-opacity="1.000000" />
  <rect x="159" y="119" width="22" height="22" style="fill:rgb(243,243,243)" fill-opacity="1.000000" />
  <rect x="139" y="139" width="22" height="22" style="fill:rgb(243,243,243)" fill-opacity="1.000000" />
  <rect x="159" y="139" width="22" height="22" style="fill:rgb(243,243,243)" fill-opacity="1.000000" />
  <rect x="139" y="159" width="22" height="22" style="fill:rgb(243,243,243)" fill-opacity="1.000000" />
  <rect x="159" y="159" width="22" height="22" style="fill:rgb(243,243,243)" fill-opacity="1.000000" />
  <rect x="139" y="179" width="22" height="22" style="fill:rgb(243,243,243)" fill-opacity="1.000000" />
  <rect x="159" y="179" width="22" height="22" style="fill:rgb(243,243,243)" fill-opacity="1.000000" />
  <rect x="139" y="199" width="22" height="22" style="fill:rgb(243,243,243)" fill-opacity="1.000000" />
  <rect x="159" y="199" width="22" height="22" style="fill:rgb(243,243,243)" fill-opacity="1.000000" />
  <rect x="139" y="219" width="22" height="22" style="fill:rgb(243,243,243)" fill-opacity="1.000000" />
  <rect x="159" y="219" width="22" height="22" style="fill:rgb(243,243,243)" fill-opacity="1.000000" />
  <rect x="139" y="239" width="22" height="22" style="fill:rgb(243,243,243)" fill-opacity="1.000000" />
  <rect x="159" y="239" width="22" height="22" style="fill:rgb(243,243,243)" fill-opacity="1.000000" />
  <rect x="139" y="259" width="22" height="22" style="fill:rgb(243,243,243)" fill-opacity="1.000000" />
  <rect x="159" y="259" width="22" height="22" style="fill:rgb(243,243,243)" fill-opacity="1.000000" />
  <rect x="139" y="279" width="22" height="22" style="fill:rgb(243,243,243)" fill-opacity="1.000000" />
  <rect x="159" y="279" width="22" height="22" style="fill:rgb(243,243,243)" fill-opacity="1.000000" />
  <rect x="139" y="299" width="22" height="22" style="fill:rgb(243,243,243)" fill-opacity="1.000000" />
  <rect x="159" y="299" width="22" height="22" style="fill:rgb(243,243,243)" fill-opacity="1.000000" />
  <rect x="39" y="99" width="22" height="22" style="fill:rgb(243,243,243)" fill-opacity="1.000000" />
  <rect x="259" y="99" width="22" height="22" style="fill:rgb(243,243,243)" fill-opacity="1.000000" />
  <rect x="59" y="119" width="22" height="22" style="fill:rgb(243,243,243)" fill-opacity="1.000000" />
  <rect x="239" y="119" width="22" height="22" style="fill:rgb(243,243,243)" fill-opacity="1.000000" />
  <rect x="79" y="139" width="22" height="22" style="fill:rgb(243,243,243)" fill-opacity="1.000000" />
  <rect x="219" y="139" width="22" height="22" style="fill:rgb(243,243,243)" fill-opacity="1.000000" />
  <rect x="99" y="159" width="22" height="22" style="fill:rgb(243,243,243)" fill-opacity="1.000000" />
  <rect x="199" y="159" width="22" height="22" style="fill:rgb(243,243,243)" fill-opacity="1.000000" />
  <rect x="79" y="179" width="22" height="22" style="fill:rgb(243,243,243)" fill-opacity="1.000000" />
  <rect x="219" y="179" width="22" height="22" style="fill:rgb(243,243,243)" fill-opacity="1.000000" />
  <rect x="59" y="199" width="22" height="22" style="fill:rgb(243,243,243)" fill-opacity="1.000000" />
  <rect x="239" y="199" width="22" height="22" style="fill:rgb(243,243,243)" fill-opacity="1.000000" />
  <rect x="39" y="219" width="22" height="22" style="fill:rgb(243,243,243)" fill-opacity="1.000000" />
  <rect x="259" y="219" width="22" height="22" style="fill:rgb(243,243,243)" fill-opacity="1.000000" />
  <rect x="19" y="99" width="22" height="22" style="fill:rgb(243,243,243)" fill-opacity="1.000000" />
  <rect x="279" y="99" width="22" height="22" style="fill:rgb(243,243,243)" fill-opacity="1.000000" />
  <rect x="39" y="119" width="22" height="22" style="fill:rgb(243,243,243)" fill-opacity="1.000000" />
  <rect x="259" y="119" width="22" height="22" style="fill:rgb(243,243,243)" fill-opacity="1.000000" />
  <rect x="59" y="139" width="22" height="22" style="fill:rgb(243,243,243)" fill-opacity="1.000000" />
  <rect x="239" y="139" width="22" height="22" style="fill:rgb(243,243,243)" fill-opacity="1.000000" />
  <rect x="79" y="159" width="22" height="22" style="fill:rgb(243,243,243)" fill-opacity="1.000000" />
  <rect x="219" y="159" width="22" height="22" style="fill:rgb(243,243,243)" fill-opacity="1.000000" />
  <rect x="59" y="179" width="22" height="22" style="fill:rgb(243,243,243)" fill-opacity="1.000000" />
  <rect x="239" y="179" width="22" height="22" style="fill:rgb(243,243,243)" fill-opacity="1.000000" />
  <rect x="39" y="199" width="22" height="22" style="fill:rgb(243,243,243)" fill-opacity="1.000000" />
  <rect x="259" y="199" width="22" height="22" style="fill:rgb(243,243,243)" fill-opacity="1.000000" />
  <rect x="19" y="219" width="22" height="22" style="fill:rgb(243,243,243)" fill-opacity="1.000000" />
  <rect x="279" y="219" width="22" height="22" style="fill:rgb(243,243,243)" fill-opacity="1.000000" />
</svg>